<?xml version="1.0" encoding="UTF-8"?><svg id="uuid-07f07d9e-3cdf-4d32-83ed-3c17af3e1544" xmlns="http://www.w3.org/2000/svg" viewBox="0 0 422 92"><defs><style>.uuid-ade42e01-145c-4d6c-abe7-36351ee39d7e,.uuid-dae661aa-1fd8-4ccd-9377-e4cbfded861f{fill:none;}.uuid-1f800ff7-9ebe-4b9d-936a-800bf50db8b4,.uuid-3e206df7-40be-418f-90e2-777089deb4fb{fill:#fff;}.uuid-3e206df7-40be-418f-90e2-777089deb4fb{font-family:TTInterphasesProMono-Rg, 'TT Interphases Pro Mono';font-size:12px;}.uuid-3e206df7-40be-418f-90e2-777089deb4fb,.uuid-58cf11e2-f8de-410f-933e-b6d412cefa79{isolation:isolate;}.uuid-dae661aa-1fd8-4ccd-9377-e4cbfded861f{stroke:#fff;stroke-miterlimit:10;}</style></defs><g id="uuid-7f408a57-a99b-4338-8d8e-fb1c7178dc99"><rect id="uuid-67f2abc0-5c7f-4eef-bc61-d49fdc9976c9" class="uuid-1f800ff7-9ebe-4b9d-936a-800bf50db8b4" x="307" y="68" width="4" height="4"/><rect id="uuid-e22e7510-f078-4183-acd1-581d310e286e" class="uuid-1f800ff7-9ebe-4b9d-936a-800bf50db8b4" x="331" y="68" width="4" height="4"/><rect id="uuid-66ea9655-0d8c-4ce5-9e5b-09c1e79a342d" class="uuid-1f800ff7-9ebe-4b9d-936a-800bf50db8b4" x="355" y="68" width="4" height="4"/><rect id="uuid-1405e9f6-7c6c-41e0-a71b-9b065259ed97" class="uuid-1f800ff7-9ebe-4b9d-936a-800bf50db8b4" x="379" y="68" width="4" height="4"/><rect id="uuid-9c561c8e-8473-4314-b801-af9f6cfc6a4f" class="uuid-1f800ff7-9ebe-4b9d-936a-800bf50db8b4" x="311" y="72" width="4" height="4"/><rect id="uuid-c87dd2e1-8384-47f9-babd-460ea1d1bb05" class="uuid-1f800ff7-9ebe-4b9d-936a-800bf50db8b4" x="335" y="72" width="4" height="4"/><rect id="uuid-57b00b9c-ddd0-4d5f-be00-098851f8a20d" class="uuid-1f800ff7-9ebe-4b9d-936a-800bf50db8b4" x="359" y="72" width="4" height="4"/><rect id="uuid-8b4d0f04-e9a7-4688-8b92-28cc9358b326" class="uuid-1f800ff7-9ebe-4b9d-936a-800bf50db8b4" x="383" y="72" width="4" height="4"/><rect id="uuid-d5deca81-87dd-4ccb-a165-7131322b24d7" class="uuid-1f800ff7-9ebe-4b9d-936a-800bf50db8b4" x="315" y="68" width="4" height="4"/><rect id="uuid-9e5f5a83-8a10-495f-81ff-119a631dac02" class="uuid-1f800ff7-9ebe-4b9d-936a-800bf50db8b4" x="339" y="68" width="4" height="4"/><rect id="uuid-83f4f298-7761-4c9d-b2b0-6a45a06daf45" class="uuid-1f800ff7-9ebe-4b9d-936a-800bf50db8b4" x="363" y="68" width="4" height="4"/><rect id="uuid-01ca162c-82d4-40ef-ba5c-845ed5b6c86e" class="uuid-1f800ff7-9ebe-4b9d-936a-800bf50db8b4" x="319" y="72" width="4" height="4"/><rect id="uuid-1b4f8f3c-1ac0-48c6-85d5-ee5d68346789" class="uuid-1f800ff7-9ebe-4b9d-936a-800bf50db8b4" x="343" y="72" width="4" height="4"/><rect id="uuid-6dbc22f1-773e-4b7f-9eac-e74e62dd8873" class="uuid-1f800ff7-9ebe-4b9d-936a-800bf50db8b4" x="367" y="72" width="4" height="4"/><rect id="uuid-214e3b84-fbdb-458f-b470-6ba24f5d9755" class="uuid-1f800ff7-9ebe-4b9d-936a-800bf50db8b4" x="323" y="68" width="4" height="4"/><rect id="uuid-93ff5839-a2be-4601-9259-f2fe379f6475" class="uuid-1f800ff7-9ebe-4b9d-936a-800bf50db8b4" x="347" y="68" width="4" height="4"/><rect id="uuid-0760189d-10e6-4b8d-8a13-7580fe9a3f19" class="uuid-1f800ff7-9ebe-4b9d-936a-800bf50db8b4" x="371" y="68" width="4" height="4"/><rect id="uuid-ab8e0c6f-984d-443e-b633-2b04189adbb1" class="uuid-1f800ff7-9ebe-4b9d-936a-800bf50db8b4" x="327" y="72" width="4" height="4"/><rect id="uuid-5bc07b16-457a-4896-9e19-df45d0d6272d" class="uuid-1f800ff7-9ebe-4b9d-936a-800bf50db8b4" x="351" y="72" width="4" height="4"/><rect id="uuid-d9c0e62e-8c45-4af1-bcf7-afca58533cb6" class="uuid-1f800ff7-9ebe-4b9d-936a-800bf50db8b4" x="375" y="72" width="4" height="4"/></g><g id="uuid-07847ad1-7939-48be-acf1-0047102a7537"><g id="uuid-2fb7f854-e287-4e41-812f-25a7d069d626"><ellipse class="uuid-ade42e01-145c-4d6c-abe7-36351ee39d7e" cx="347" cy="40" rx="40" ry="12"/><ellipse class="uuid-dae661aa-1fd8-4ccd-9377-e4cbfded861f" cx="347" cy="40" rx="39.5" ry="11.5"/></g><g id="uuid-a857aa1a-2217-4957-91a7-fb6ca6f99d98"><ellipse class="uuid-ade42e01-145c-4d6c-abe7-36351ee39d7e" cx="347" cy="51" rx="40" ry="12"/><ellipse class="uuid-dae661aa-1fd8-4ccd-9377-e4cbfded861f" cx="347" cy="51" rx="39.5" ry="11.5"/></g><g id="uuid-64dd037e-82ec-4b2e-b146-3ae396d1f916"><ellipse class="uuid-ade42e01-145c-4d6c-abe7-36351ee39d7e" cx="347" cy="28" rx="40" ry="12"/><ellipse class="uuid-dae661aa-1fd8-4ccd-9377-e4cbfded861f" cx="347" cy="28" rx="39.5" ry="11.5"/></g></g><g id="uuid-89ec0aae-5412-4b2f-99cd-97d7449d3402" class="uuid-58cf11e2-f8de-410f-933e-b6d412cefa79"><text class="uuid-3e206df7-40be-418f-90e2-777089deb4fb" transform="translate(34.0999854 27.0000194)"><tspan x="0" y="0">40°44’4.731”N, 73°57’19.611”W</tspan></text></g><g id="uuid-fa34705a-c9cf-4005-b9bd-a7c9c085d55a"><g id="uuid-319af8cd-bbb9-46ab-b76a-761cfce6d276"><rect id="uuid-c070138a-148b-44cb-b11d-daf296311cc1" class="uuid-1f800ff7-9ebe-4b9d-936a-800bf50db8b4" x="37" y="40" width="1" height="18"/><rect id="uuid-a4a3125a-8968-4528-9139-331abc4a39f2" class="uuid-1f800ff7-9ebe-4b9d-936a-800bf50db8b4" x="40" y="40" width="1" height="18"/><rect id="uuid-560b2288-48c3-4d85-8e7c-217e1aa72f75" class="uuid-1f800ff7-9ebe-4b9d-936a-800bf50db8b4" x="45" y="40" width="1" height="18"/><rect id="uuid-f533fadd-8b99-4964-9914-1382f3c6aa41" class="uuid-1f800ff7-9ebe-4b9d-936a-800bf50db8b4" x="53" y="40" width="1" height="18"/><rect id="uuid-5b3e7ad7-994d-4f5a-b14f-2cede4fd95f7" class="uuid-1f800ff7-9ebe-4b9d-936a-800bf50db8b4" x="56" y="40" width="1" height="18"/><rect id="uuid-7361ba7c-fb0c-46dc-a2e6-c560b4e52dda" class="uuid-1f800ff7-9ebe-4b9d-936a-800bf50db8b4" x="65" y="40" width="1" height="18"/><rect id="uuid-e44a21f6-4c15-48c9-bd8f-e6e6da489a8b" class="uuid-1f800ff7-9ebe-4b9d-936a-800bf50db8b4" x="71" y="40" width="1" height="18"/><rect id="uuid-5ff3a3e2-8586-4693-9de8-515a812628c1" class="uuid-1f800ff7-9ebe-4b9d-936a-800bf50db8b4" x="73" y="40" width="1" height="18"/><rect id="uuid-ef883d0e-9567-4ae7-90a6-3616a0bafde9" class="uuid-1f800ff7-9ebe-4b9d-936a-800bf50db8b4" x="78" y="40" width="1" height="18"/><rect id="uuid-d5ea07ce-db2e-4fd6-b814-2c93b5ba47f0" class="uuid-1f800ff7-9ebe-4b9d-936a-800bf50db8b4" x="86" y="40" width="1" height="18"/><rect id="uuid-66391202-6333-4cfd-9306-7b39a0e10898" class="uuid-1f800ff7-9ebe-4b9d-936a-800bf50db8b4" x="89" y="40" width="1" height="18"/><rect id="uuid-2c2ca878-a5a8-4c89-bf98-b067d4081f97" class="uuid-1f800ff7-9ebe-4b9d-936a-800bf50db8b4" x="94" y="40" width="1" height="18"/><rect id="uuid-440f9c8c-b386-4d48-8fda-1da20b6718c3" class="uuid-1f800ff7-9ebe-4b9d-936a-800bf50db8b4" x="100" y="40" width="1" height="18"/><rect id="uuid-f981e66d-4a0f-480c-8ff2-6c17b55c9965" class="uuid-1f800ff7-9ebe-4b9d-936a-800bf50db8b4" x="111" y="40" width="1" height="18"/><rect id="uuid-3f3c59a9-a209-48bb-ba42-498620fb9d76" class="uuid-1f800ff7-9ebe-4b9d-936a-800bf50db8b4" x="120" y="40" width="1" height="18"/><rect id="uuid-43f9a1e5-77ec-4d6f-b762-804bc9b43add" class="uuid-1f800ff7-9ebe-4b9d-936a-800bf50db8b4" x="128" y="40" width="1" height="18"/><rect id="uuid-441d69d0-0703-4ad4-a618-41ffe9e04d58" class="uuid-1f800ff7-9ebe-4b9d-936a-800bf50db8b4" x="130" y="40" width="1" height="18"/><rect id="uuid-859385cb-c557-4b6b-a5f5-b8fda45c1aa6" class="uuid-1f800ff7-9ebe-4b9d-936a-800bf50db8b4" x="137" y="40" width="1" height="18"/><rect id="uuid-27559149-1964-4012-8427-bf778fcd5584" class="uuid-1f800ff7-9ebe-4b9d-936a-800bf50db8b4" x="139" y="40" width="1" height="18"/><rect id="uuid-a883d7bc-1c91-4846-855c-761f5f3e0b93" class="uuid-1f800ff7-9ebe-4b9d-936a-800bf50db8b4" x="144" y="40" width="1" height="18"/><rect id="uuid-3ab71f22-7ddf-4d32-a208-e49c138b4bc2" class="uuid-1f800ff7-9ebe-4b9d-936a-800bf50db8b4" x="150" y="40" width="1" height="18"/><rect id="uuid-37724f75-6476-4cee-b282-7c76198869e4" class="uuid-1f800ff7-9ebe-4b9d-936a-800bf50db8b4" x="155" y="40" width="1" height="18"/><rect id="uuid-9d50519a-8bbb-4e95-89d3-b93662421f7b" class="uuid-1f800ff7-9ebe-4b9d-936a-800bf50db8b4" x="163" y="40" width="1" height="18"/><rect id="uuid-2027595a-9886-4178-b509-532533521123" class="uuid-1f800ff7-9ebe-4b9d-936a-800bf50db8b4" x="166" y="40" width="1" height="18"/><rect id="uuid-c9fdf3d9-4a8a-40f5-8999-f12f4d4763e7" class="uuid-1f800ff7-9ebe-4b9d-936a-800bf50db8b4" x="174" y="40" width="1" height="18"/><rect id="uuid-ecb9a3e4-b1ce-4544-9876-0c7c724d6187" class="uuid-1f800ff7-9ebe-4b9d-936a-800bf50db8b4" x="177" y="40" width="1" height="18"/><rect id="uuid-8de56f38-70ff-43f1-b2c0-42f3e9e580d3" class="uuid-1f800ff7-9ebe-4b9d-936a-800bf50db8b4" x="188" y="40" width="1" height="18"/><rect id="uuid-7d5d59c7-beec-4437-9257-cb7dd48b56a0" class="uuid-1f800ff7-9ebe-4b9d-936a-800bf50db8b4" x="193" y="40" width="1" height="18"/><rect id="uuid-cef3e17b-0569-4e3e-ace3-d18b2e71535d" class="uuid-1f800ff7-9ebe-4b9d-936a-800bf50db8b4" x="199" y="40" width="1" height="18"/><rect id="uuid-8366e034-00d8-4213-97f5-fc259e1c01ab" class="uuid-1f800ff7-9ebe-4b9d-936a-800bf50db8b4" x="202" y="40" width="1" height="18"/><rect id="uuid-7185ce3d-98b6-4b9e-88ab-70884065e6e2" class="uuid-1f800ff7-9ebe-4b9d-936a-800bf50db8b4" x="210" y="40" width="1" height="18"/><rect id="uuid-b71bc066-59b7-46d5-941f-2616c55df37d" class="uuid-1f800ff7-9ebe-4b9d-936a-800bf50db8b4" x="218" y="40" width="1" height="18"/><rect id="uuid-05360d13-4810-4185-ac76-46759840484f" class="uuid-1f800ff7-9ebe-4b9d-936a-800bf50db8b4" x="221" y="40" width="1" height="18"/><rect id="uuid-cd7d5ec4-afce-42ab-98c5-024d2c4ef68f" class="uuid-1f800ff7-9ebe-4b9d-936a-800bf50db8b4" x="224" y="40" width="1" height="18"/><rect id="uuid-380b3000-ccfb-4265-a803-251f2e28e913" class="uuid-1f800ff7-9ebe-4b9d-936a-800bf50db8b4" x="235" y="40" width="1" height="18"/><rect id="uuid-faf50d32-896a-4838-ae5f-828df088c2a6" class="uuid-1f800ff7-9ebe-4b9d-936a-800bf50db8b4" x="239" y="40" width="3" height="18"/><rect id="uuid-f4fb31d4-6330-4229-bfd1-cdacabd949f3" class="uuid-1f800ff7-9ebe-4b9d-936a-800bf50db8b4" x="248" y="40" width="3" height="18"/><rect id="uuid-353ea15d-fef0-407a-8350-2218243d4447" class="uuid-1f800ff7-9ebe-4b9d-936a-800bf50db8b4" x="226" y="40" width="2" height="18"/><rect id="uuid-ac6e1923-46f9-45b8-83d1-6855b28640b7" class="uuid-1f800ff7-9ebe-4b9d-936a-800bf50db8b4" x="232" y="40" width="2" height="18"/><rect id="uuid-78d099ae-9acd-4d9b-948b-c4a1837effe9" class="uuid-1f800ff7-9ebe-4b9d-936a-800bf50db8b4" x="243" y="40" width="2" height="18"/><rect id="uuid-f156af14-9667-4d3d-871c-6b4eff779d59" class="uuid-1f800ff7-9ebe-4b9d-936a-800bf50db8b4" x="252" y="40" width="1" height="18"/><rect id="uuid-6490f279-c1bc-433b-a2df-4de78d613e2d" class="uuid-1f800ff7-9ebe-4b9d-936a-800bf50db8b4" x="254" y="40" width="2" height="18"/><rect id="uuid-c301a939-56d3-469c-b431-22d3df8a5359" class="uuid-1f800ff7-9ebe-4b9d-936a-800bf50db8b4" x="213" y="40" width="4" height="18"/><rect id="uuid-1deaec71-3a09-435d-91f7-bdecd90731f6" class="uuid-1f800ff7-9ebe-4b9d-936a-800bf50db8b4" x="204" y="40" width="2" height="18"/><rect id="uuid-d9d68bef-a93d-49a6-b55c-4f2bd4177670" class="uuid-1f800ff7-9ebe-4b9d-936a-800bf50db8b4" x="196" y="40" width="2" height="18"/><rect id="uuid-57a5a972-182f-4af9-b820-52766800ab92" class="uuid-1f800ff7-9ebe-4b9d-936a-800bf50db8b4" x="180" y="40" width="2" height="18"/><rect id="uuid-9e219017-f7cc-494f-9cf6-984563261e71" class="uuid-1f800ff7-9ebe-4b9d-936a-800bf50db8b4" x="184" y="40" width="3" height="18"/><rect id="uuid-49ea80a7-ebde-4f68-b34e-47fe2233047f" class="uuid-1f800ff7-9ebe-4b9d-936a-800bf50db8b4" x="146" y="40" width="2" height="18"/><rect id="uuid-27606956-b79d-4647-8bd7-429d7dca57e1" class="uuid-1f800ff7-9ebe-4b9d-936a-800bf50db8b4" x="157" y="40" width="4" height="18"/><rect id="uuid-ec0adad0-6b00-41e3-b450-15f502077aef" class="uuid-1f800ff7-9ebe-4b9d-936a-800bf50db8b4" x="168" y="40" width="4" height="18"/><rect id="uuid-cd05f1f2-79e8-444d-af1f-7328cdbccdd2" class="uuid-1f800ff7-9ebe-4b9d-936a-800bf50db8b4" x="133" y="40" width="2" height="18"/><rect id="uuid-29a7645b-9c07-48da-9f2f-cfd037bc15e6" class="uuid-1f800ff7-9ebe-4b9d-936a-800bf50db8b4" x="122" y="40" width="2" height="18"/><rect id="uuid-bf69af88-2d12-4033-98d9-fb739ec9ee33" class="uuid-1f800ff7-9ebe-4b9d-936a-800bf50db8b4" x="114" y="40" width="4" height="18"/><rect id="uuid-c2faf4ed-ff79-43e8-b4c4-ef04c8cefd85" class="uuid-1f800ff7-9ebe-4b9d-936a-800bf50db8b4" x="67" y="40" width="2" height="18"/><rect id="uuid-981e3fab-1e52-45cb-82f3-e096cf2f868c" class="uuid-1f800ff7-9ebe-4b9d-936a-800bf50db8b4" x="83" y="40" width="2" height="18"/><rect id="uuid-5e75ee9c-9ecd-4eac-b29b-9b2412d2ee7e" class="uuid-1f800ff7-9ebe-4b9d-936a-800bf50db8b4" x="97" y="40" width="2" height="18"/><rect id="uuid-23df9710-1ce6-4f29-a4e7-1854b69a7abe" class="uuid-1f800ff7-9ebe-4b9d-936a-800bf50db8b4" x="103" y="40" width="2" height="18"/><rect id="uuid-0849380b-a34c-41a2-9387-10154bcbf69d" class="uuid-1f800ff7-9ebe-4b9d-936a-800bf50db8b4" x="107" y="40" width="3" height="18"/><rect id="uuid-f6756bec-bfeb-4e71-84ae-043bd6345f2b" class="uuid-1f800ff7-9ebe-4b9d-936a-800bf50db8b4" x="34" y="40" width="2" height="18"/><rect id="uuid-08b673be-6fe9-4478-8f67-6dab18b8603e" class="uuid-1f800ff7-9ebe-4b9d-936a-800bf50db8b4" x="47" y="40" width="4" height="18"/><rect id="uuid-b4a55987-06e0-4998-abe6-ab0b09d38b45" class="uuid-1f800ff7-9ebe-4b9d-936a-800bf50db8b4" x="60" y="40" width="4" height="18"/></g></g><g id="uuid-c5c5af92-8a1e-45c2-b273-bf4778fa7a42"><rect class="uuid-ade42e01-145c-4d6c-abe7-36351ee39d7e" width="422" height="92"/><rect class="uuid-dae661aa-1fd8-4ccd-9377-e4cbfded861f" x=".5" y=".5" width="421" height="91"/></g></svg>